# xmcd
#
# Track frame offsets:
#	150
#	16575
#	32424
#	46675
#	60100
#	75701
#	89353
#	100379
#	117251
#	129818
#	144969
#	159634
#	170985
#	188774
#	201449
#
# Disc length: 2866 seconds
#
# Revision: 1
# Processed by: cddbd v1.5.2PL0 Copyright (c) Steve Scherf et al.
# Submitted via: audiograbber 1.83.01
#
DISCID=b50b300f
DTITLE=By Coincidence - Rivers Ran Free
DYEAR=2005
DGENRE=Country
TTITLE0=When I Get Over You
TTITLE1=Marina Moonlight
TTITLE2=The Girl I Cannot Find
TTITLE3=Leaving Eyes
TTITLE4=If I Had You
TTITLE5=Loving Her Was Easier
TTITLE6=Only A Dream
TTITLE7=Key To Life
TTITLE8=Carrie
TTITLE9=Sacred Ground
TTITLE10=Family Tree
TTITLE11=Country Mama
TTITLE12=Rivers
TTITLE13=Could It Be Love
TTITLE14=Here We Are
EXTD=
EXTT0=
EXTT1=
EXTT2=
EXTT3=
EXTT4=
EXTT5=
EXTT6=
EXTT7=
EXTT8=
EXTT9=
EXTT10=
EXTT11=
EXTT12=
EXTT13=
EXTT14=
PLAYORDER=
